<svg width="64" height="64" viewBox="0 0 64 64" fill="none" xmlns="http://www.w3.org/2000/svg">
  <path d="M22 27V18L32 9L42 18V27" stroke="#0B1220" stroke-width="3.5" stroke-linecap="round" stroke-linejoin="round"/>
  <path d="M36 18.5C35.2 16.8 33.7 16 31.7 16C29.2 16 27.5 17.2 27.5 19C27.5 23.5 36.5 21 36.5 26C36.5 28.3 34.5 30 31.5 30C29.2 30 27.3 29 26.2 27.2M31.7 13V33" stroke="#0B5CFF" stroke-width="3.5" stroke-linecap="round"/>
  <path d="M6.5 38.5L21 33.5C23.1 32.8 25.4 33 27.3 34.1L31 36.2H38.5C41 36.2 43 38.2 43 40.7C43 43.2 41 45.2 38.5 45.2H29" stroke="#0B1220" stroke-width="3.5" stroke-linecap="round" stroke-linejoin="round"/>
  <path d="M7 39L15 54L21 51L34 54C36.4 54.5 38.9 54 41 52.7L57 42.5C59 41.2 59.6 38.6 58.4 36.6C57.1 34.5 54.4 33.8 52.3 35L43 40.2" stroke="#0B1220" stroke-width="3.5" stroke-linecap="round" stroke-linejoin="round"/>
</svg>
