<svg width="1024" height="1024" viewBox="0 0 1024 1024" fill="none" xmlns="http://www.w3.org/2000/svg">
  <rect width="1024" height="1024" rx="220" fill="white"/>
  <path d="M352 432V288L512 144L672 288V432" stroke="#0B1220" stroke-width="56" stroke-linecap="round" stroke-linejoin="round"/>
  <path d="M576 296C563 269 539 256 507 256C467 256 440 275 440 304C440 376 584 336 584 416C584 453 552 480 504 480C467 480 437 464 419 435M507 208V528" stroke="#0B5CFF" stroke-width="56" stroke-linecap="round"/>
  <path d="M104 616L336 536C370 525 406 528 437 546L496 579H616C656 579 688 611 688 651C688 691 656 723 616 723H464" stroke="#0B1220" stroke-width="56" stroke-linecap="round" stroke-linejoin="round"/>
  <path d="M112 624L240 864L336 816L544 864C582 872 622 864 656 843L912 680C944 659 954 618 934 586C914 552 870 541 837 560L688 643" stroke="#0B1220" stroke-width="56" stroke-linecap="round" stroke-linejoin="round"/>
</svg>
